<svg id="Capa_1" enable-background="new 0 0 512 512" height="512" viewBox="0 0 512 512" width="512" xmlns="http://www.w3.org/2000/svg"><g><g><path d="m504.5 462.655h-8.663v-26.845c0-4.142-3.357-7.5-7.5-7.5h-15.733v-32.907c0-4.142-3.357-7.5-7.5-7.5h-5.632v-24.903c0-4.142-3.357-7.5-7.5-7.5s-7.5 3.358-7.5 7.5v24.902h-49.65v-152.686h49.65v92.749c0 4.142 3.357 7.5 7.5 7.5s7.5-3.358 7.5-7.5v-92.749h5.632c4.143 0 7.5-3.358 7.5-7.5v-32.906h15.733c4.143 0 7.5-3.358 7.5-7.5v-81.823c0-3.016-1.807-5.739-4.586-6.911l-232.338-97.986c-1.863-.786-3.965-.786-5.828 0l-232.338 97.985c-2.779 1.172-4.586 3.895-4.586 6.911v81.823c0 4.142 3.357 7.5 7.5 7.5h15.735v32.906c0 4.142 3.357 7.5 7.5 7.5h5.632v24.902c0 4.142 3.357 7.5 7.5 7.5s7.5-3.358 7.5-7.5v-24.902h49.65v152.687h-49.65v-92.749c0-4.142-3.357-7.5-7.5-7.5s-7.5 3.358-7.5 7.5v92.749h-5.632c-4.143 0-7.5 3.358-7.5 7.5v32.907h-15.733c-4.143 0-7.5 3.358-7.5 7.5v26.845h-8.663c-4.143 0-7.5 3.358-7.5 7.5v34.346c0 4.142 3.357 7.5 7.5 7.5h497c4.143 0 7.5-3.358 7.5-7.5v-34.346c0-4.142-3.357-7.499-7.5-7.499zm-122.81-34.346v-25.407h75.914v25.407zm75.914-208.093h-75.914v-25.406h75.914zm-327.293-25.407v25.406h-75.914v-25.406zm1.868 40.407h5.632c4.143 0 7.5-3.358 7.5-7.5v-32.906h93.041c4.143 0 7.5-3.358 7.5-7.5s-3.357-7.5-7.5-7.5h-207.191v-69.347l224.838-94.823 224.838 94.823v69.347h-207.189c-4.143 0-7.5 3.358-7.5 7.5s3.357 7.5 7.5 7.5h93.042v32.906c0 4.142 3.357 7.5 7.5 7.5h5.632v152.687h-5.632c-4.143 0-7.5 3.358-7.5 7.5v32.907h-42.58v-53.11c0-37.556-30.554-68.11-68.109-68.11s-68.109 30.554-68.109 68.11v53.11h-42.58v-32.907c0-4.142-3.357-7.5-7.5-7.5h-5.632v-152.687zm131.321 193.093v-105.68c25.744 3.656 45.609 25.832 45.609 52.57v53.11zm-60.609 0v-53.11c0-26.738 19.865-48.914 45.609-52.57v105.68zm-148.494-25.406h75.914v25.407h-75.914zm-23.234 40.406h449.674v19.345h-449.674zm465.837 53.691h-482v-19.346h482z"/><path d="m193.108 126.7c-10.795-10.794-16.739-25.146-16.739-40.411 0-2.026.12-4.15.356-6.313.288-2.643-.844-5.241-2.976-6.829s-4.946-1.929-7.395-.896l-113.28 47.775c-2.779 1.172-4.586 3.895-4.586 6.911v28.048c0 4.142 3.357 7.5 7.5 7.5h154.797c3.033 0 5.769-1.827 6.929-4.63 1.161-2.803.52-6.028-1.625-8.173zm-129.62 20.784v-15.572l98.005-41.333c1.028 17.658 8.396 34.116 21.007 46.727l10.179 10.178z"/><path d="m295.911 149.681c-2.145 2.145-2.786 5.371-1.625 8.173 1.16 2.803 3.896 4.63 6.929 4.63h154.797c4.143 0 7.5-3.358 7.5-7.5v-28.048c0-3.016-1.807-5.739-4.586-6.911l-113.28-47.774c-2.45-1.034-5.263-.692-7.395.896s-3.264 4.186-2.976 6.829c.236 2.163.356 4.287.356 6.313 0 15.266-5.945 29.617-16.74 40.412zm33.587-12.374c12.612-12.611 19.98-29.068 21.009-46.727l98.005 41.332v15.572h-129.19z"/><path d="m256 161.985c1.989 0 3.896-.79 5.304-2.197l45.338-45.338c7.521-7.522 11.664-17.523 11.664-28.161s-4.143-20.639-11.664-28.161c-13.666-13.666-35.151-15.268-50.642-4.699-15.49-10.57-36.978-8.966-50.641 4.699-7.522 7.521-11.665 17.522-11.665 28.161 0 10.638 4.143 20.639 11.664 28.161l45.338 45.338c1.408 1.407 3.315 2.197 5.304 2.197zm-47.306-75.696c0-6.631 2.582-12.865 7.271-17.554 4.813-4.813 11.179-7.225 17.55-7.225 6.237 0 12.479 2.313 17.266 6.95 2.908 2.818 7.529 2.818 10.438 0 9.674-9.374 25.292-9.25 34.815.274h.001c4.688 4.689 7.271 10.923 7.271 17.554s-2.582 12.865-7.271 17.554l-40.035 40.036-40.034-40.035c-4.69-4.689-7.272-10.923-7.272-17.554z"/><path d="m195.391 280.673h121.219c4.143 0 7.5-3.358 7.5-7.5v-34.346c0-4.142-3.357-7.5-7.5-7.5h-121.219c-4.143 0-7.5 3.358-7.5 7.5v34.346c0 4.142 3.357 7.5 7.5 7.5zm7.5-34.346h106.219v19.346h-106.219z"/></g></g></svg>